<svg width="5300" height="741" viewBox="0 0 5300 741" fill="none" xmlns="http://www.w3.org/2000/svg">
<rect width="5300" height="741" fill="#E5E5E5"/>
<path d="M2650 377V375C2650.77 374.933 2651.5 374.596 2652.05 374.047C2652.6 373.498 2652.93 372.773 2653 372H2655C2654.94 373.305 2654.39 374.54 2653.46 375.464C2652.54 376.388 2651.31 376.935 2650 377V377Z" fill="black"/>
<g style="mix-blend-mode:darken" filter="url(#filter0_d_0_1)">
<rect width="900" height="200" transform="translate(4)" fill="url(#paint0_linear_0_1)" fill-opacity="0.2"/>
<g clip-path="url(#clip0_0_1)">
<path d="M188.14 50.3247C192.488 50.3247 196.013 47.0868 196.013 43.0926C196.013 39.0984 192.488 35.8605 188.14 35.8605C183.792 35.8605 180.267 39.0984 180.267 43.0926C180.267 47.0868 183.792 50.3247 188.14 50.3247Z" fill="#F2F2F2"/>
<path d="M249.212 157.657C260.915 149.469 266.504 135.711 263.005 122.586C262.918 122.26 262.826 121.934 262.729 121.61C260.41 113.819 254.671 106.415 246.306 103.925C239.282 101.835 231.616 103.442 224.289 102.611C209.906 100.979 198.754 90.2887 190.908 79.0955C183.062 67.9022 177.031 55.3729 166.605 46.1256C149.42 30.8831 121.385 27.6013 100.077 37.5231C78.7696 47.4449 65.1968 69.4572 65.7756 91.3953C66.3545 113.333 80.5322 134.308 101.122 145.436C108.685 149.524 117.434 152.42 126.14 151.407C133.694 150.527 140.558 146.799 148.077 145.692C159.898 143.951 171.644 148.861 181.868 154.582C192.093 160.303 201.969 167.085 213.588 169.737C224.869 172.313 238.846 164.91 249.212 157.657Z" fill="#F2F2F2"/>
<path d="M232.399 37.9838C232.143 37.8267 231.883 37.6777 231.627 37.5261C224.211 33.1695 216.263 29.6303 207.947 26.9816L206.018 51.4183H193.793V23.4144C193.024 23.2681 192.248 23.13 191.473 23V51.4183H176.945C168.948 51.4183 161.277 48.4999 155.622 43.305C149.967 38.1102 146.79 31.0644 146.79 23.7178V23.7178C146.012 23.8722 145.239 24.0374 144.467 24.2134V51.4183H132.634L130.797 28.1165C122.25 31.1274 114.137 35.0869 106.636 39.9069C106.507 39.9882 106.377 40.0721 106.25 40.1534C105.598 40.5732 104.956 41.0012 104.316 41.4345V134.661H139.189L138.572 126.819L135.182 83.7668H203.468L200.077 126.819L199.461 134.661H233.947V38.9264C233.434 38.6068 232.918 38.2926 232.399 37.9838ZM144.467 76.6568H134.621L132.802 53.5527H144.467V76.6568ZM191.473 76.6568H174.937V76.199C174.937 75.979 174.89 75.7611 174.798 75.5578C174.706 75.3546 174.572 75.1699 174.402 75.0144C174.233 74.859 174.032 74.7357 173.81 74.6518C173.589 74.5678 173.352 74.5248 173.112 74.5251H165.923C165.684 74.525 165.447 74.5683 165.226 74.6524C165.005 74.7365 164.804 74.8598 164.635 75.0152C164.465 75.1707 164.331 75.3552 164.24 75.5583C164.148 75.7615 164.101 75.9792 164.101 76.199V76.6568H146.79V53.5527H191.473V76.6568ZM193.793 76.6568V53.5527H205.85L204.031 76.6568H193.793Z" fill="#3F3D56"/>
<path d="M53 140.631C55.5615 143.419 58.3321 146.039 61.2914 148.472L276.709 148.743C279.668 146.31 282.438 143.69 285 140.902L53 140.631Z" fill="#3F3D56"/>
<path d="M199.081 115.522V138.736C199.082 139.032 199.21 139.315 199.437 139.525C199.665 139.734 199.974 139.851 200.296 139.852H237.744C238.066 139.851 238.375 139.734 238.603 139.525C238.83 139.315 238.959 139.032 238.959 138.736V115.522C238.958 115.227 238.83 114.944 238.602 114.735C238.374 114.526 238.066 114.408 237.744 114.408H200.296C199.974 114.408 199.666 114.526 199.438 114.735C199.21 114.944 199.082 115.227 199.081 115.522V115.522Z" fill="#3F3D56"/>
<path d="M199.96 115.811V138.45C199.96 138.608 200.029 138.759 200.15 138.871C200.272 138.983 200.437 139.046 200.609 139.046H237.433C237.605 139.046 237.77 138.983 237.891 138.871C238.013 138.759 238.081 138.608 238.082 138.45V115.811C238.082 115.653 238.013 115.501 237.892 115.389C237.77 115.277 237.605 115.214 237.433 115.214H200.609C200.437 115.214 200.272 115.277 200.15 115.389C200.028 115.501 199.96 115.653 199.96 115.811V115.811Z" fill="#6C63FF"/>
<path d="M198.298 143.263C198.367 143.342 198.454 143.406 198.553 143.45C198.653 143.493 198.761 143.516 198.871 143.515H238.97C239.079 143.515 239.187 143.492 239.286 143.449C239.385 143.406 239.473 143.342 239.542 143.264C239.611 143.186 239.66 143.095 239.686 142.997C239.712 142.899 239.713 142.797 239.691 142.698L239.068 139.982C239.043 139.872 238.987 139.768 238.907 139.682C238.827 139.596 238.724 139.53 238.609 139.49C238.526 139.46 238.437 139.444 238.347 139.445H199.491C199.402 139.444 199.313 139.46 199.229 139.49C199.114 139.53 199.012 139.596 198.932 139.682C198.851 139.768 198.796 139.872 198.77 139.982L198.148 142.698C198.125 142.797 198.127 142.899 198.154 142.996C198.18 143.094 198.229 143.185 198.298 143.263V143.263Z" fill="#2F2E41"/>
<path d="M236.971 140.614H237.918C237.998 140.614 238.062 140.555 238.062 140.482V140.066C238.062 139.993 237.998 139.934 237.918 139.934H236.971C236.892 139.934 236.827 139.993 236.827 140.066V140.482C236.827 140.555 236.892 140.614 236.971 140.614Z" fill="#3F3D56"/>
<path d="M234.501 140.614H235.448C235.528 140.614 235.592 140.555 235.592 140.482V140.066C235.592 139.993 235.528 139.934 235.448 139.934H234.501C234.422 139.934 234.357 139.993 234.357 140.066V140.482C234.357 140.555 234.422 140.614 234.501 140.614Z" fill="#3F3D56"/>
<path d="M232.031 140.614H232.978C233.058 140.614 233.122 140.555 233.122 140.482V140.066C233.122 139.993 233.058 139.934 232.978 139.934H232.031C231.952 139.934 231.887 139.993 231.887 140.066V140.482C231.887 140.555 231.952 140.614 232.031 140.614Z" fill="#3F3D56"/>
<path d="M229.561 140.614H230.508C230.588 140.614 230.652 140.555 230.652 140.482V140.066C230.652 139.993 230.588 139.934 230.508 139.934H229.561C229.482 139.934 229.417 139.993 229.417 140.066V140.482C229.417 140.555 229.482 140.614 229.561 140.614Z" fill="#3F3D56"/>
<path d="M227.091 140.614H228.038C228.118 140.614 228.182 140.555 228.182 140.482V140.066C228.182 139.993 228.118 139.934 228.038 139.934H227.091C227.012 139.934 226.947 139.993 226.947 140.066V140.482C226.947 140.555 227.012 140.614 227.091 140.614Z" fill="#3F3D56"/>
<path d="M224.621 140.614H225.568C225.648 140.614 225.712 140.555 225.712 140.482V140.066C225.712 139.993 225.648 139.934 225.568 139.934H224.621C224.542 139.934 224.477 139.993 224.477 140.066V140.482C224.477 140.555 224.542 140.614 224.621 140.614Z" fill="#3F3D56"/>
<path d="M222.151 140.614H223.098C223.178 140.614 223.242 140.555 223.242 140.482V140.066C223.242 139.993 223.178 139.934 223.098 139.934H222.151C222.072 139.934 222.007 139.993 222.007 140.066V140.482C222.007 140.555 222.072 140.614 222.151 140.614Z" fill="#3F3D56"/>
<path d="M219.681 140.614H220.628C220.708 140.614 220.772 140.555 220.772 140.482V140.066C220.772 139.993 220.708 139.934 220.628 139.934H219.681C219.602 139.934 219.537 139.993 219.537 140.066V140.482C219.537 140.555 219.602 140.614 219.681 140.614Z" fill="#3F3D56"/>
<path d="M217.211 140.614H218.158C218.238 140.614 218.302 140.555 218.302 140.482V140.066C218.302 139.993 218.238 139.934 218.158 139.934H217.211C217.132 139.934 217.067 139.993 217.067 140.066V140.482C217.067 140.555 217.132 140.614 217.211 140.614Z" fill="#3F3D56"/>
<path d="M214.741 140.614H215.688C215.768 140.614 215.832 140.555 215.832 140.482V140.066C215.832 139.993 215.768 139.934 215.688 139.934H214.741C214.662 139.934 214.597 139.993 214.597 140.066V140.482C214.597 140.555 214.662 140.614 214.741 140.614Z" fill="#3F3D56"/>
<path d="M212.271 140.614H213.218C213.298 140.614 213.362 140.555 213.362 140.482V140.066C213.362 139.993 213.298 139.934 213.218 139.934H212.271C212.191 139.934 212.127 139.993 212.127 140.066V140.482C212.127 140.555 212.191 140.614 212.271 140.614Z" fill="#3F3D56"/>
<path d="M209.801 140.614H210.748C210.828 140.614 210.892 140.555 210.892 140.482V140.066C210.892 139.993 210.828 139.934 210.748 139.934H209.801C209.722 139.934 209.657 139.993 209.657 140.066V140.482C209.657 140.555 209.722 140.614 209.801 140.614Z" fill="#3F3D56"/>
<path d="M207.331 140.614H208.278C208.358 140.614 208.422 140.555 208.422 140.482V140.066C208.422 139.993 208.358 139.934 208.278 139.934H207.331C207.251 139.934 207.187 139.993 207.187 140.066V140.482C207.187 140.555 207.251 140.614 207.331 140.614Z" fill="#3F3D56"/>
<path d="M204.861 140.614H205.808C205.888 140.614 205.952 140.555 205.952 140.482V140.066C205.952 139.993 205.888 139.934 205.808 139.934H204.861C204.781 139.934 204.717 139.993 204.717 140.066V140.482C204.717 140.555 204.781 140.614 204.861 140.614Z" fill="#3F3D56"/>
<path d="M202.391 140.614H203.338C203.417 140.614 203.482 140.555 203.482 140.482V140.066C203.482 139.993 203.417 139.934 203.338 139.934H202.391C202.311 139.934 202.247 139.993 202.247 140.066V140.482C202.247 140.555 202.311 140.614 202.391 140.614Z" fill="#3F3D56"/>
<path d="M199.921 140.614H200.868C200.948 140.614 201.012 140.555 201.012 140.482V140.066C201.012 139.993 200.948 139.934 200.868 139.934H199.921C199.841 139.934 199.777 139.993 199.777 140.066V140.482C199.777 140.555 199.841 140.614 199.921 140.614Z" fill="#3F3D56"/>
<path d="M237 141.749H237.948C238.027 141.749 238.092 141.69 238.092 141.617V141.2C238.092 141.127 238.027 141.068 237.948 141.068H237C236.921 141.068 236.857 141.127 236.857 141.2V141.617C236.857 141.69 236.921 141.749 237 141.749Z" fill="#3F3D56"/>
<path d="M234.53 141.749H235.478C235.557 141.749 235.621 141.69 235.621 141.617V141.2C235.621 141.127 235.557 141.068 235.478 141.068H234.53C234.451 141.068 234.386 141.127 234.386 141.2V141.617C234.386 141.69 234.451 141.749 234.53 141.749Z" fill="#3F3D56"/>
<path d="M232.06 141.749H233.007C233.087 141.749 233.151 141.69 233.151 141.617V141.2C233.151 141.127 233.087 141.068 233.007 141.068H232.06C231.981 141.068 231.916 141.127 231.916 141.2V141.617C231.916 141.69 231.981 141.749 232.06 141.749Z" fill="#3F3D56"/>
<path d="M229.59 141.749H230.537C230.617 141.749 230.681 141.69 230.681 141.617V141.2C230.681 141.127 230.617 141.068 230.537 141.068H229.59C229.511 141.068 229.446 141.127 229.446 141.2V141.617C229.446 141.69 229.511 141.749 229.59 141.749Z" fill="#3F3D56"/>
<path d="M227.12 141.749H228.067C228.147 141.749 228.211 141.69 228.211 141.617V141.2C228.211 141.127 228.147 141.068 228.067 141.068H227.12C227.041 141.068 226.976 141.127 226.976 141.2V141.617C226.976 141.69 227.041 141.749 227.12 141.749Z" fill="#3F3D56"/>
<path d="M224.65 141.749H225.597C225.677 141.749 225.741 141.69 225.741 141.617V141.2C225.741 141.127 225.677 141.068 225.597 141.068H224.65C224.571 141.068 224.506 141.127 224.506 141.2V141.617C224.506 141.69 224.571 141.749 224.65 141.749Z" fill="#3F3D56"/>
<path d="M222.18 141.749H223.127C223.207 141.749 223.271 141.69 223.271 141.617V141.2C223.271 141.127 223.207 141.068 223.127 141.068H222.18C222.101 141.068 222.036 141.127 222.036 141.2V141.617C222.036 141.69 222.101 141.749 222.18 141.749Z" fill="#3F3D56"/>
<path d="M219.71 141.749H220.657C220.737 141.749 220.801 141.69 220.801 141.617V141.2C220.801 141.127 220.737 141.068 220.657 141.068H219.71C219.631 141.068 219.566 141.127 219.566 141.2V141.617C219.566 141.69 219.631 141.749 219.71 141.749Z" fill="#3F3D56"/>
<path d="M217.24 141.749H218.187C218.267 141.749 218.331 141.69 218.331 141.617V141.2C218.331 141.127 218.267 141.068 218.187 141.068H217.24C217.161 141.068 217.096 141.127 217.096 141.2V141.617C217.096 141.69 217.161 141.749 217.24 141.749Z" fill="#3F3D56"/>
<path d="M214.77 141.749H215.717C215.797 141.749 215.861 141.69 215.861 141.617V141.2C215.861 141.127 215.797 141.068 215.717 141.068H214.77C214.691 141.068 214.626 141.127 214.626 141.2V141.617C214.626 141.69 214.691 141.749 214.77 141.749Z" fill="#3F3D56"/>
<path d="M212.3 141.749H213.247C213.327 141.749 213.391 141.69 213.391 141.617V141.2C213.391 141.127 213.327 141.068 213.247 141.068H212.3C212.221 141.068 212.156 141.127 212.156 141.2V141.617C212.156 141.69 212.221 141.749 212.3 141.749Z" fill="#3F3D56"/>
<path d="M209.83 141.749H210.777C210.857 141.749 210.921 141.69 210.921 141.617V141.2C210.921 141.127 210.857 141.068 210.777 141.068H209.83C209.751 141.068 209.686 141.127 209.686 141.2V141.617C209.686 141.69 209.751 141.749 209.83 141.749Z" fill="#3F3D56"/>
<path d="M207.36 141.749H208.307C208.387 141.749 208.451 141.69 208.451 141.617V141.2C208.451 141.127 208.387 141.068 208.307 141.068H207.36C207.281 141.068 207.216 141.127 207.216 141.2V141.617C207.216 141.69 207.281 141.749 207.36 141.749Z" fill="#3F3D56"/>
<path d="M204.89 141.749H205.837C205.917 141.749 205.981 141.69 205.981 141.617V141.2C205.981 141.127 205.917 141.068 205.837 141.068H204.89C204.811 141.068 204.746 141.127 204.746 141.2V141.617C204.746 141.69 204.811 141.749 204.89 141.749Z" fill="#3F3D56"/>
<path d="M202.42 141.749H203.367C203.447 141.749 203.511 141.69 203.511 141.617V141.2C203.511 141.127 203.447 141.068 203.367 141.068H202.42C202.341 141.068 202.276 141.127 202.276 141.2V141.617C202.276 141.69 202.341 141.749 202.42 141.749Z" fill="#3F3D56"/>
<path d="M199.95 141.749H200.897C200.977 141.749 201.041 141.69 201.041 141.617V141.2C201.041 141.127 200.977 141.068 200.897 141.068H199.95C199.871 141.068 199.806 141.127 199.806 141.2V141.617C199.806 141.69 199.871 141.749 199.95 141.749Z" fill="#3F3D56"/>
<path d="M216.499 143.11H226.091C226.171 143.11 226.235 143.051 226.235 142.978V142.562C226.235 142.489 226.171 142.43 226.091 142.43H216.499C216.42 142.43 216.355 142.489 216.355 142.562V142.978C216.355 143.051 216.42 143.11 216.499 143.11Z" fill="#3F3D56"/>
<path d="M206.337 120.166H205.498C205.244 120.166 205.038 120.356 205.038 120.589C205.038 120.823 205.244 121.012 205.498 121.012H206.337C206.591 121.012 206.797 120.823 206.797 120.589C206.797 120.356 206.591 120.166 206.337 120.166Z" fill="white"/>
<path d="M215.926 120.166H215.088C214.834 120.166 214.627 120.356 214.627 120.589C214.627 120.823 214.834 121.012 215.088 121.012H215.926C216.18 121.012 216.387 120.823 216.387 120.589C216.387 120.356 216.18 120.166 215.926 120.166Z" fill="white"/>
<path d="M218.643 120.166H217.805C217.551 120.166 217.345 120.356 217.345 120.589C217.345 120.823 217.551 121.012 217.805 121.012H218.643C218.898 121.012 219.104 120.823 219.104 120.589C219.104 120.356 218.898 120.166 218.643 120.166Z" fill="white"/>
<path d="M213.318 120.096H208.107C207.852 120.096 207.646 120.285 207.646 120.519C207.646 120.752 207.852 120.942 208.107 120.942H213.318C213.572 120.942 213.778 120.752 213.778 120.519C213.778 120.285 213.572 120.096 213.318 120.096Z" fill="white"/>
<path d="M226.104 120.096H220.893C220.639 120.096 220.432 120.285 220.432 120.519C220.432 120.752 220.639 120.942 220.893 120.942H226.104C226.358 120.942 226.564 120.752 226.564 120.519C226.564 120.285 226.358 120.096 226.104 120.096Z" fill="white"/>
<path d="M208.894 122.075H208.055C207.801 122.075 207.595 122.264 207.595 122.498C207.595 122.731 207.801 122.921 208.055 122.921H208.894C209.148 122.921 209.354 122.731 209.354 122.498C209.354 122.264 209.148 122.075 208.894 122.075Z" fill="white"/>
<path d="M218.484 122.075H217.645C217.391 122.075 217.185 122.264 217.185 122.498C217.185 122.731 217.391 122.921 217.645 122.921H218.484C218.738 122.921 218.944 122.731 218.944 122.498C218.944 122.264 218.738 122.075 218.484 122.075Z" fill="white"/>
<path d="M221.201 122.075H220.362C220.108 122.075 219.902 122.264 219.902 122.498C219.902 122.731 220.108 122.921 220.362 122.921H221.201C221.455 122.921 221.661 122.731 221.661 122.498C221.661 122.264 221.455 122.075 221.201 122.075Z" fill="white"/>
<path d="M215.875 122.005H210.664C210.41 122.005 210.203 122.194 210.203 122.427C210.203 122.661 210.41 122.85 210.664 122.85H215.875C216.129 122.85 216.335 122.661 216.335 122.427C216.335 122.194 216.129 122.005 215.875 122.005Z" fill="white"/>
<path d="M228.661 122.005H223.45C223.196 122.005 222.99 122.194 222.99 122.427C222.99 122.661 223.196 122.85 223.45 122.85H228.661C228.916 122.85 229.122 122.661 229.122 122.427C229.122 122.194 228.916 122.005 228.661 122.005Z" fill="white"/>
<path d="M211.451 123.984H210.613C210.358 123.984 210.152 124.173 210.152 124.407C210.152 124.64 210.358 124.829 210.613 124.829H211.451C211.705 124.829 211.911 124.64 211.911 124.407C211.911 124.173 211.705 123.984 211.451 123.984Z" fill="white"/>
<path d="M221.041 123.984H220.202C219.948 123.984 219.742 124.173 219.742 124.407C219.742 124.64 219.948 124.829 220.202 124.829H221.041C221.295 124.829 221.501 124.64 221.501 124.407C221.501 124.173 221.295 123.984 221.041 123.984Z" fill="white"/>
<path d="M223.758 123.984H222.919C222.665 123.984 222.459 124.173 222.459 124.407C222.459 124.64 222.665 124.829 222.919 124.829H223.758C224.012 124.829 224.218 124.64 224.218 124.407C224.218 124.173 224.012 123.984 223.758 123.984Z" fill="white"/>
<path d="M218.432 123.913H213.221C212.967 123.913 212.761 124.103 212.761 124.336C212.761 124.57 212.967 124.759 213.221 124.759H218.432C218.687 124.759 218.893 124.57 218.893 124.336C218.893 124.103 218.687 123.913 218.432 123.913Z" fill="white"/>
<path d="M231.219 123.913H226.007C225.753 123.913 225.547 124.103 225.547 124.336C225.547 124.57 225.753 124.759 226.007 124.759H231.219C231.473 124.759 231.679 124.57 231.679 124.336C231.679 124.103 231.473 123.913 231.219 123.913Z" fill="white"/>
<path d="M214.008 125.892H213.17C212.916 125.892 212.71 126.082 212.71 126.315C212.71 126.549 212.916 126.738 213.17 126.738H214.008C214.263 126.738 214.469 126.549 214.469 126.315C214.469 126.082 214.263 125.892 214.008 125.892Z" fill="white"/>
<path d="M223.598 125.892H222.76C222.505 125.892 222.299 126.082 222.299 126.315C222.299 126.549 222.505 126.738 222.76 126.738H223.598C223.852 126.738 224.058 126.549 224.058 126.315C224.058 126.082 223.852 125.892 223.598 125.892Z" fill="white"/>
<path d="M226.315 125.892H225.477C225.222 125.892 225.016 126.082 225.016 126.315C225.016 126.549 225.222 126.738 225.477 126.738H226.315C226.569 126.738 226.775 126.549 226.775 126.315C226.775 126.082 226.569 125.892 226.315 125.892Z" fill="white"/>
<path d="M220.99 125.822H215.778C215.524 125.822 215.318 126.011 215.318 126.245C215.318 126.478 215.524 126.668 215.778 126.668H220.99C221.244 126.668 221.45 126.478 221.45 126.245C221.45 126.011 221.244 125.822 220.99 125.822Z" fill="white"/>
<path d="M215.926 133.482H215.088C214.834 133.482 214.627 133.671 214.627 133.905C214.627 134.138 214.834 134.328 215.088 134.328H215.926C216.18 134.328 216.387 134.138 216.387 133.905C216.387 133.671 216.18 133.482 215.926 133.482Z" fill="white"/>
<path d="M218.643 133.482H217.805C217.551 133.482 217.345 133.671 217.345 133.905C217.345 134.138 217.551 134.328 217.805 134.328H218.643C218.898 134.328 219.104 134.138 219.104 133.905C219.104 133.671 218.898 133.482 218.643 133.482Z" fill="white"/>
<path d="M226.104 133.552H220.893C220.639 133.552 220.432 133.742 220.432 133.975C220.432 134.209 220.639 134.398 220.893 134.398H226.104C226.358 134.398 226.564 134.209 226.564 133.975C226.564 133.742 226.358 133.552 226.104 133.552Z" fill="white"/>
<path d="M206.337 133.482H205.498C205.244 133.482 205.038 133.671 205.038 133.905C205.038 134.138 205.244 134.328 205.498 134.328H206.337C206.591 134.328 206.797 134.138 206.797 133.905C206.797 133.671 206.591 133.482 206.337 133.482Z" fill="white"/>
<path d="M213.318 133.552H208.107C207.852 133.552 207.646 133.742 207.646 133.975C207.646 134.209 207.852 134.398 208.107 134.398H213.318C213.572 134.398 213.778 134.209 213.778 133.975C213.778 133.742 213.572 133.552 213.318 133.552Z" fill="white"/>
<path d="M208.894 131.573H208.055C207.801 131.573 207.595 131.763 207.595 131.996C207.595 132.23 207.801 132.419 208.055 132.419H208.894C209.148 132.419 209.354 132.23 209.354 131.996C209.354 131.763 209.148 131.573 208.894 131.573Z" fill="white"/>
<path d="M218.484 131.573H217.645C217.391 131.573 217.185 131.763 217.185 131.996C217.185 132.23 217.391 132.419 217.645 132.419H218.484C218.738 132.419 218.944 132.23 218.944 131.996C218.944 131.763 218.738 131.573 218.484 131.573Z" fill="white"/>
<path d="M221.201 131.573H220.362C220.108 131.573 219.902 131.763 219.902 131.996C219.902 132.23 220.108 132.419 220.362 132.419H221.201C221.455 132.419 221.661 132.23 221.661 131.996C221.661 131.763 221.455 131.573 221.201 131.573Z" fill="white"/>
<path d="M215.875 131.644H210.664C210.41 131.644 210.203 131.833 210.203 132.067C210.203 132.3 210.41 132.489 210.664 132.489H215.875C216.129 132.489 216.335 132.3 216.335 132.067C216.335 131.833 216.129 131.644 215.875 131.644Z" fill="white"/>
<path d="M211.451 129.665H210.613C210.358 129.665 210.152 129.854 210.152 130.087C210.152 130.321 210.358 130.51 210.613 130.51H211.451C211.705 130.51 211.911 130.321 211.911 130.087C211.911 129.854 211.705 129.665 211.451 129.665Z" fill="white"/>
<path d="M221.041 129.665H220.202C219.948 129.665 219.742 129.854 219.742 130.087C219.742 130.321 219.948 130.51 220.202 130.51H221.041C221.295 130.51 221.501 130.321 221.501 130.087C221.501 129.854 221.295 129.665 221.041 129.665Z" fill="white"/>
<path d="M223.758 129.665H222.919C222.665 129.665 222.459 129.854 222.459 130.087C222.459 130.321 222.665 130.51 222.919 130.51H223.758C224.012 130.51 224.218 130.321 224.218 130.087C224.218 129.854 224.012 129.665 223.758 129.665Z" fill="white"/>
<path d="M218.432 129.735H213.221C212.967 129.735 212.761 129.924 212.761 130.158C212.761 130.391 212.967 130.581 213.221 130.581H218.432C218.687 130.581 218.893 130.391 218.893 130.158C218.893 129.924 218.687 129.735 218.432 129.735Z" fill="white"/>
<path d="M214.008 127.756H213.17C212.916 127.756 212.71 127.945 212.71 128.179C212.71 128.412 212.916 128.602 213.17 128.602H214.008C214.263 128.602 214.469 128.412 214.469 128.179C214.469 127.945 214.263 127.756 214.008 127.756Z" fill="white"/>
<path d="M223.598 127.756H222.76C222.505 127.756 222.299 127.945 222.299 128.179C222.299 128.412 222.505 128.602 222.76 128.602H223.598C223.852 128.602 224.058 128.412 224.058 128.179C224.058 127.945 223.852 127.756 223.598 127.756Z" fill="white"/>
<path d="M226.315 127.756H225.477C225.222 127.756 225.016 127.945 225.016 128.179C225.016 128.412 225.222 128.602 225.477 128.602H226.315C226.569 128.602 226.775 128.412 226.775 128.179C226.775 127.945 226.569 127.756 226.315 127.756Z" fill="white"/>
<path d="M220.99 127.826H215.778C215.524 127.826 215.318 128.016 215.318 128.249C215.318 128.483 215.524 128.672 215.778 128.672H220.99C221.244 128.672 221.45 128.483 221.45 128.249C221.45 128.016 221.244 127.826 220.99 127.826Z" fill="white"/>
<path d="M201.879 155.85L197.943 150.135L210.298 141.087L215.397 135.898C216.06 135.223 216.904 134.721 217.844 134.44C218.784 134.159 219.788 134.109 220.756 134.296C221.723 134.484 222.621 134.901 223.358 135.506C224.095 136.112 224.646 136.884 224.956 137.747C225.416 139.025 225.317 140.417 224.68 141.63C224.044 142.842 222.92 143.78 221.545 144.245L213.481 146.974L201.879 155.85Z" fill="#FFB6B6"/>
<path d="M109.521 114.409V142.188H130.707V114.409C130.707 114.209 130.638 114.015 130.509 113.854C130.38 113.693 130.198 113.574 129.99 113.515C129.892 113.485 129.79 113.471 129.687 113.472H110.544C110.41 113.472 110.277 113.496 110.153 113.543C110.029 113.59 109.916 113.659 109.821 113.746C109.726 113.833 109.651 113.936 109.599 114.05C109.548 114.164 109.521 114.286 109.521 114.409V114.409ZM117.789 123.954C117.795 123.406 118.035 122.883 118.459 122.497C118.882 122.112 119.454 121.896 120.051 121.896C120.647 121.896 121.219 122.112 121.642 122.497C122.066 122.883 122.307 123.406 122.312 123.954V127.177C122.309 127.726 122.07 128.252 121.646 128.639C121.222 129.027 120.648 129.244 120.051 129.244C119.453 129.244 118.879 129.027 118.456 128.639C118.032 128.252 117.792 127.726 117.789 127.177V123.954Z" fill="#2F2E41"/>
<path d="M109.456 141.3V143.978C109.457 144.117 109.517 144.25 109.623 144.349C109.73 144.447 109.874 144.503 110.025 144.504H130.203C130.354 144.503 130.499 144.448 130.605 144.349C130.712 144.251 130.772 144.117 130.772 143.978V141.3H109.456Z" fill="#3F3D56"/>
<path d="M76.1935 72.5562V123.277C76.194 123.923 76.4738 124.543 76.9714 125C77.4689 125.457 78.1436 125.714 78.8472 125.715H160.67C161.374 125.714 162.049 125.457 162.546 125C163.044 124.543 163.323 123.923 163.324 123.277V72.5562C163.322 71.9104 163.042 71.2915 162.545 70.8351C162.047 70.3788 161.373 70.122 160.67 70.1212H78.8472C78.1442 70.122 77.4702 70.3788 76.9728 70.8352C76.4754 71.2916 76.1952 71.9104 76.1935 72.5562Z" fill="#3F3D56"/>
<path d="M78.113 73.1873V122.651C78.1137 122.997 78.2633 123.328 78.5291 123.572C78.795 123.816 79.1554 123.953 79.5313 123.954H159.989C160.365 123.953 160.725 123.816 160.991 123.572C161.257 123.328 161.407 122.997 161.407 122.651V73.1873C161.407 72.8415 161.258 72.5099 160.992 72.2652C160.726 72.0204 160.366 71.8825 159.989 71.8818H79.5313C79.1549 71.8825 78.7942 72.0204 78.5283 72.2652C78.2624 72.5099 78.1131 72.8415 78.113 73.1873Z" fill="white"/>
<path d="M93.0446 144.322C93.1265 144.417 93.2306 144.493 93.3491 144.545C93.4675 144.597 93.5973 144.624 93.7287 144.623H141.596C141.727 144.623 141.856 144.596 141.974 144.544C142.092 144.492 142.196 144.417 142.279 144.324C142.361 144.23 142.42 144.121 142.451 144.004C142.482 143.887 142.484 143.766 142.457 143.648L141.714 140.406C141.683 140.274 141.617 140.151 141.521 140.048C141.425 139.945 141.303 139.866 141.165 139.818C141.066 139.782 140.96 139.764 140.853 139.764H94.4688C94.3618 139.764 94.2558 139.782 94.1562 139.818C94.0187 139.866 93.8965 139.945 93.8007 140.048C93.7049 140.151 93.6386 140.274 93.6078 140.406L92.8647 143.648C92.8383 143.766 92.8407 143.887 92.8718 144.004C92.9029 144.121 92.962 144.229 93.0446 144.322Z" fill="#2F2E41"/>
<path d="M157.378 78.6957H82.094C82.0157 78.6941 81.9412 78.6644 81.8865 78.613C81.8318 78.5616 81.8011 78.4925 81.8011 78.4206C81.8011 78.3487 81.8318 78.2797 81.8865 78.2283C81.9412 78.1769 82.0157 78.1472 82.094 78.1456H157.378C157.456 78.1472 157.531 78.1769 157.585 78.2283C157.64 78.2797 157.671 78.3487 157.671 78.4206C157.671 78.4925 157.64 78.5616 157.585 78.613C157.531 78.6644 157.456 78.6941 157.378 78.6957V78.6957Z" fill="#3F3D56"/>
<path d="M87.2186 76.7414C88.1876 76.7414 88.9732 76.0038 88.9732 75.0938C88.9732 74.1838 88.1876 73.4462 87.2186 73.4462C86.2496 73.4462 85.4641 74.1838 85.4641 75.0938C85.4641 76.0038 86.2496 76.7414 87.2186 76.7414Z" fill="#3F3D56"/>
<path d="M93.2797 76.7414C94.2487 76.7414 95.0342 76.0038 95.0342 75.0938C95.0342 74.1838 94.2487 73.4462 93.2797 73.4462C92.3107 73.4462 91.5251 74.1838 91.5251 75.0938C91.5251 76.0038 92.3107 76.7414 93.2797 76.7414Z" fill="#3F3D56"/>
<path d="M99.3408 76.7414C100.31 76.7414 101.095 76.0038 101.095 75.0938C101.095 74.1838 100.31 73.4462 99.3408 73.4462C98.3718 73.4462 97.5863 74.1838 97.5863 75.0938C97.5863 76.0038 98.3718 76.7414 99.3408 76.7414Z" fill="#3F3D56"/>
<path d="M153.728 73.8536H149.423C149.338 73.8555 149.257 73.8878 149.198 73.9437C149.138 73.9996 149.105 74.0747 149.105 74.1529C149.105 74.2311 149.138 74.3062 149.198 74.3621C149.257 74.4181 149.338 74.4504 149.423 74.4522H153.728C153.814 74.4511 153.896 74.4191 153.956 74.3631C154.016 74.3071 154.049 74.2316 154.049 74.1529C154.049 74.0743 154.016 73.9988 153.956 73.9428C153.896 73.8868 153.814 73.8547 153.728 73.8536Z" fill="#3F3D56"/>
<path d="M153.728 74.9777H149.423C149.338 74.9794 149.257 75.0117 149.198 75.0676C149.138 75.1236 149.105 75.1987 149.105 75.277C149.105 75.3552 149.138 75.4304 149.198 75.4863C149.257 75.5422 149.338 75.5745 149.423 75.5763H153.728C153.814 75.5753 153.896 75.5434 153.956 75.4873C154.016 75.4313 154.05 75.3557 154.05 75.277C154.05 75.1982 154.016 75.1226 153.956 75.0666C153.896 75.0106 153.814 74.9786 153.728 74.9777V74.9777Z" fill="#3F3D56"/>
<path d="M153.728 76.1017H149.423C149.338 76.1036 149.257 76.1359 149.198 76.1918C149.138 76.2478 149.105 76.3229 149.105 76.401C149.105 76.4792 149.138 76.5543 149.198 76.6103C149.257 76.6662 149.338 76.6985 149.423 76.7003H153.728C153.814 76.6992 153.896 76.6672 153.956 76.6112C154.016 76.5552 154.049 76.4797 154.049 76.401C154.049 76.3224 154.016 76.2469 153.956 76.1909C153.896 76.1349 153.814 76.1029 153.728 76.1017V76.1017Z" fill="#3F3D56"/>
<path d="M257.512 142.475C257.642 142.823 257.888 143.123 258.216 143.334C258.544 143.545 258.935 143.655 259.335 143.648L267.147 143.464C267.549 143.457 267.939 143.33 268.257 143.102C268.575 142.875 268.804 142.559 268.91 142.202L270.015 131.344C270.408 131.508 270.835 131.588 271.265 131.58C271.639 131.572 272.008 131.496 272.349 131.356C272.691 131.217 273 131.017 273.258 130.768C273.516 130.519 273.718 130.225 273.852 129.905C273.986 129.584 274.051 129.242 274.041 128.899C274.032 128.555 273.949 128.217 273.797 127.903C273.645 127.588 273.428 127.305 273.157 127.068C272.886 126.831 272.566 126.646 272.217 126.522C271.868 126.399 271.496 126.34 271.122 126.348C270.95 126.348 270.778 126.364 270.61 126.397C270.427 126.215 270.205 126.071 269.957 125.973C269.71 125.875 269.443 125.825 269.173 125.828L257.157 126.113C257.058 126.116 256.959 126.127 256.861 126.146C256.597 126.192 256.348 126.288 256.128 126.429C255.909 126.571 255.725 126.753 255.588 126.966C255.452 127.178 255.367 127.414 255.339 127.659C255.31 127.904 255.34 128.151 255.424 128.385L257.512 142.475ZM270.242 130.607L271.029 128.02C271.118 127.721 271.12 127.406 271.035 127.106C271.073 127.106 271.107 127.089 271.145 127.089C271.684 127.079 272.206 127.265 272.596 127.608C272.985 127.951 273.211 128.421 273.224 128.917C273.237 129.412 273.035 129.892 272.663 130.251C272.291 130.61 271.779 130.819 271.24 130.831C270.891 130.841 270.546 130.764 270.242 130.607Z" fill="#2F2E41"/>
<path d="M256.861 126.146C257.117 127.491 259.995 128.436 263.456 128.272C266.638 128.137 269.24 127.111 269.717 125.894C269.54 125.846 269.357 125.824 269.173 125.828L257.157 126.113C257.058 126.116 256.959 126.127 256.861 126.146V126.146Z" fill="#3F3D56"/>
<path d="M264.09 136.509C264.106 136.505 264.121 136.499 264.134 136.491L265.831 135.471C265.851 135.459 265.868 135.442 265.88 135.422C265.892 135.402 265.898 135.38 265.898 135.358C265.898 135.335 265.892 135.313 265.88 135.293C265.868 135.274 265.851 135.257 265.831 135.244L264.068 134.184C264.052 134.174 264.033 134.167 264.014 134.164C263.995 134.16 263.976 134.16 263.957 134.164C263.938 134.167 263.92 134.174 263.904 134.184C263.888 134.194 263.874 134.207 263.863 134.222C263.853 134.237 263.845 134.254 263.842 134.271C263.838 134.289 263.838 134.307 263.842 134.324C263.846 134.342 263.854 134.358 263.865 134.373C263.876 134.388 263.89 134.4 263.906 134.41L265.481 135.357L263.973 136.264C263.944 136.282 263.922 136.308 263.913 136.339C263.903 136.37 263.905 136.403 263.919 136.432C263.933 136.461 263.958 136.485 263.989 136.499C264.02 136.513 264.056 136.517 264.09 136.509H264.09Z" fill="#6C63FF"/>
<path d="M261.411 136.622C261.439 136.616 261.465 136.601 261.484 136.581C261.504 136.561 261.517 136.536 261.521 136.509C261.525 136.483 261.52 136.456 261.507 136.431C261.494 136.407 261.473 136.387 261.448 136.374L259.884 135.55L261.396 134.519C261.411 134.508 261.424 134.495 261.434 134.48C261.444 134.465 261.451 134.448 261.453 134.43C261.456 134.412 261.455 134.395 261.451 134.377C261.446 134.36 261.437 134.344 261.426 134.33C261.414 134.315 261.4 134.303 261.383 134.294C261.367 134.285 261.348 134.279 261.329 134.276C261.31 134.274 261.291 134.275 261.272 134.279C261.253 134.283 261.235 134.291 261.22 134.302L259.528 135.456C259.508 135.47 259.492 135.487 259.482 135.508C259.472 135.528 259.467 135.55 259.468 135.573C259.47 135.595 259.477 135.617 259.49 135.636C259.503 135.655 259.521 135.671 259.542 135.682L261.301 136.609C261.334 136.626 261.374 136.631 261.411 136.622V136.622Z" fill="#6C63FF"/>
<path d="M263.921 137.403C263.935 137.399 263.949 137.394 263.962 137.387C263.978 137.378 263.993 137.366 264.004 137.351C264.015 137.337 264.024 137.321 264.028 137.303C264.033 137.286 264.034 137.268 264.031 137.251C264.028 137.233 264.021 137.216 264.011 137.201L261.606 133.569C261.586 133.539 261.553 133.517 261.515 133.508C261.477 133.5 261.437 133.505 261.404 133.524C261.37 133.543 261.346 133.573 261.337 133.608C261.328 133.643 261.334 133.679 261.354 133.71L263.759 137.342C263.775 137.367 263.8 137.386 263.829 137.397C263.858 137.408 263.891 137.41 263.921 137.403Z" fill="#6C63FF"/>
<path d="M128.731 93.6469H115.701C115.17 93.6469 114.739 94.0427 114.739 94.531V95.7004C114.739 96.1887 115.17 96.5845 115.701 96.5845H128.731C129.263 96.5845 129.694 96.1887 129.694 95.7004V94.531C129.694 94.0427 129.263 93.6469 128.731 93.6469Z" fill="#6C63FF"/>
<path d="M136.326 99.5221H108.106C107.574 99.5221 107.144 99.9179 107.144 100.406V101.576C107.144 102.064 107.574 102.46 108.106 102.46H136.326C136.858 102.46 137.289 102.064 137.289 101.576V100.406C137.289 99.9179 136.858 99.5221 136.326 99.5221Z" fill="#E6E6E6"/>
<path d="M136.326 105.397H108.106C107.574 105.397 107.144 105.793 107.144 106.282V107.451C107.144 107.939 107.574 108.335 108.106 108.335H136.326C136.858 108.335 137.289 107.939 137.289 107.451V106.282C137.289 105.793 136.858 105.397 136.326 105.397Z" fill="#E6E6E6"/>
<path d="M138.719 125.071L138.782 125.257L138.786 125.263L140.71 130.636L142.923 136.828L147.087 148.465L147.128 150.272V150.278L147.437 164.819L146.579 166.79L147.545 170.022C147.545 170.022 147.101 165.137 144.719 167.943C143.37 169.537 141.793 171.168 140.498 172.698C142.385 173.399 144.302 174.034 146.25 174.601C146.67 174.725 147.094 174.842 147.518 174.96C147.609 174.984 147.699 175.009 147.79 175.034C154.246 176.788 160.92 177.773 167.649 177.966C167.999 177.975 168.342 177.981 168.675 177.988C168.793 177.991 168.907 177.994 169.022 177.994C169.398 177.997 169.772 178 170.148 178C170.909 178 171.665 177.99 172.419 177.969C177.996 177.825 183.54 177.136 188.958 175.914C188.921 173.86 188.82 171.459 188.675 168.894C188.608 167.637 187.098 166.274 187.007 164.958C186.943 163.969 188.299 163.039 188.228 162.035C187.77 155.852 187.199 158.225 186.775 153.847C186.731 153.418 186.691 153.007 186.654 152.614C186.381 149.802 186.193 148.044 186.193 148.044L188.003 137.567L190.845 121.116L190.626 120.786L190.381 120.674L175.389 113.858L174.575 111.943C174.338 111.391 173.926 110.917 173.393 110.581C172.86 110.246 172.231 110.065 171.585 110.061L161.709 110.024C161.196 110.022 160.691 110.132 160.234 110.345C159.777 110.558 159.382 110.869 159.082 111.25L156.408 114.652L138.719 125.071Z" fill="#3F3D56"/>
<path d="M149.364 145.875L147.128 150.272L145.601 153.275L142.974 165.91L141.658 167.192L140.532 162.653L128.738 165.058C128.351 163.084 128.634 165.125 128.396 162.959C128.463 162.897 128.533 162.835 128.604 162.774C128.792 162.613 128.951 162.462 128.947 162.316C128.813 154.845 129.216 142.13 132.587 134.427C133.114 133.17 133.81 131.977 134.659 130.877C134.726 130.794 134.79 130.71 134.854 130.627C136.408 128.628 137.39 126.66 138.782 125.26V125.257C138.791 125.25 138.799 125.243 138.806 125.235C138.811 125.233 138.816 125.23 138.819 125.226L148.386 120.566L148.796 131.158L149.089 138.772L149.364 145.875Z" fill="#3F3D56"/>
<path d="M183.858 147.124L186.652 152.616L187.628 154.528L190.254 167.161L191.565 168.441L192.694 163.902L193.225 163.802L202.795 161.981L205.585 170.12C206.214 169.157 206.461 168.025 206.286 166.915C206.111 165.804 205.524 164.783 204.623 164.024C204.433 163.866 204.274 163.711 204.279 163.566C204.437 154.778 203.852 138.732 198.568 132.128C196.89 130.033 195.883 127.945 194.418 126.487C194.413 126.483 194.413 126.478 194.409 126.478L190.843 121.116L190.626 120.787L190.381 120.674L183.858 147.124Z" fill="#3F3D56"/>
<path d="M166.932 107.442C174.188 107.442 180.07 102.039 180.07 95.3731C180.07 88.7076 174.188 83.3042 166.932 83.3042C159.676 83.3042 153.794 88.7076 153.794 95.3731C153.794 102.039 159.676 107.442 166.932 107.442Z" fill="#FFB6B6"/>
<path d="M184.69 86.9431C184.588 86.8431 184.465 86.7631 184.329 86.7077C184.193 86.6523 184.046 86.6227 183.897 86.6207L184.094 86.1169C184.159 85.9583 184.176 85.7867 184.145 85.6198C184.113 85.4529 184.034 85.2967 183.915 85.1671C183.797 85.0376 183.642 84.9394 183.469 84.8826C183.295 84.8258 183.108 84.8125 182.927 84.8439L182.207 84.9712L182.275 84.5297C182.301 84.3653 182.28 84.1975 182.214 84.0428C182.148 83.8881 182.039 83.7518 181.899 83.6474C181.758 83.543 181.59 83.4741 181.412 83.4474C181.233 83.4207 181.05 83.4371 180.881 83.495C180.726 83.5508 180.56 83.5742 180.395 83.5634C180.23 83.5526 180.069 83.508 179.925 83.4328C179.78 83.3598 179.655 83.2588 179.557 83.1367C179.459 83.0146 179.392 82.8744 179.359 82.7258L179.108 81.6153L179.082 81.5557C177.861 79.6868 175.514 78.3271 172.642 77.8287C170.086 77.3818 167.464 77.6093 164.938 77.8233C163.935 77.91 162.803 78.0075 161.859 78.5384C161.057 78.9934 160.379 79.9035 160.518 80.8217C158.026 80.1202 155.355 81.5205 154.031 83.2865C152.462 85.3883 152.206 88.0211 152.164 90.0796C152.052 94.9496 153.146 98.9339 155.408 101.924C155.573 102.141 155.614 102.593 155.941 102.745L155.874 102.645C156.239 102.813 156.611 103.083 156.472 103.373C156.074 104.207 158.719 106.052 160.582 106.661C163.982 107.775 168.502 107.68 171.681 107.279L171.793 106.588C172.94 106.445 173.748 106.171 173.975 105.743C174.376 105.429 174.718 105.147 175.016 104.887L175.019 104.885C175.025 104.879 175.036 104.871 175.042 104.866C176.478 103.601 176.811 102.88 176.962 101.783C177.106 100.708 176.85 99.6165 176.587 98.6332C182.113 99.4187 174.411 93.2269 179.56 92.0298C179.619 92.013 179.679 91.9995 179.739 91.9891C179.89 91.9566 180.04 91.9241 180.185 91.8862C180.881 91.7125 181.548 91.4509 182.166 91.1088C183.605 90.3044 184.08 89.2372 184.823 88.0346C184.93 87.8634 184.975 87.6652 184.951 87.4689C184.927 87.2726 184.836 87.0883 184.69 86.9431V86.9431Z" fill="#2F2E41"/>
<path d="M213.4 147.983C213.398 148.457 213.392 149.121 213.368 149.942C213.365 150.055 213.362 150.172 213.359 150.291C213.321 151.8 213.283 153.065 213.221 154.47C213.218 154.568 213.215 154.663 213.209 154.76C213.126 156.721 212.996 159.005 212.772 162.62C212.357 169.3 211.631 163.539 210.903 165.882C210.868 165.998 210.829 166.136 210.794 166.299C210.684 166.888 210.498 167.464 210.24 168.013C209.853 168.225 209.455 168.428 209.063 168.631C207.946 169.202 206.81 169.752 205.666 170.275C205.024 170.567 204.378 170.855 203.729 171.131C203.626 171.174 203.526 171.217 203.425 171.258C200.104 172.67 196.68 173.87 193.179 174.85C192.495 175.039 191.814 175.223 191.124 175.394C190.405 175.578 189.685 175.752 188.957 175.914C183.539 177.136 177.995 177.825 172.418 177.97C171.666 177.992 170.909 178 170.148 178C169.77 178 169.399 177.997 169.021 177.994C168.906 177.994 168.791 177.992 168.676 177.989C168.343 177.981 167.998 177.975 167.65 177.967C160.921 177.774 154.247 176.789 147.792 175.034L147.517 174.961C147.093 174.842 146.671 174.725 146.25 174.6C144.303 174.034 142.386 173.401 140.497 172.699C139.055 172.165 137.63 171.593 136.221 170.982C136.209 170.979 136.197 170.973 136.186 170.966C135.891 170.841 135.593 170.711 135.299 170.578C135.26 170.559 135.219 170.54 135.178 170.521C134.078 170.028 132.99 169.512 131.914 168.972C131.008 167.063 129.735 166.697 128.944 165.018C128.714 164.519 128.548 163.997 128.449 163.463C128.449 163.457 128.446 163.452 128.446 163.444C128.529 164.451 128.095 161.656 128.443 163.433C128.44 163.401 128.437 163.365 128.434 163.325C128.425 163.227 128.414 163.108 128.396 162.959C127.385 153.888 127.449 143.514 127.01 134.966C126.981 134.413 126.95 133.884 126.919 133.379C126.91 133.211 126.898 133.046 126.886 132.883C126.907 132.834 126.93 132.783 126.957 132.734C126.963 132.72 126.97 132.706 126.978 132.694C126.986 132.677 126.996 132.66 127.007 132.645C127.013 132.637 127.022 132.626 127.028 132.618C127.032 132.608 127.037 132.599 127.043 132.591C127.069 132.553 127.099 132.512 127.131 132.474C127.146 132.458 127.158 132.444 127.172 132.431C127.182 132.417 127.194 132.404 127.208 132.393C127.217 132.38 127.228 132.368 127.24 132.358C127.252 132.347 127.264 132.333 127.278 132.32C127.285 132.311 127.293 132.304 127.302 132.298C127.325 132.273 127.351 132.251 127.379 132.23C127.484 132.141 127.596 132.06 127.715 131.987C127.756 131.962 127.8 131.938 127.842 131.911C128.139 131.747 128.452 131.61 128.776 131.499C128.888 131.461 129 131.426 129.121 131.388C129.165 131.377 129.207 131.364 129.251 131.35C129.316 131.331 129.381 131.312 129.449 131.299C129.785 131.207 130.147 131.128 130.54 131.055C130.587 131.047 130.637 131.039 130.687 131.028C130.758 131.014 130.831 131.003 130.905 130.993C131.005 130.976 131.109 130.96 131.212 130.944C132.088 130.816 133.081 130.722 134.178 130.659C134.281 130.654 134.384 130.649 134.488 130.643C134.609 130.638 134.729 130.632 134.853 130.627C134.956 130.621 135.063 130.619 135.169 130.616C135.272 130.611 135.378 130.608 135.487 130.605C135.785 130.597 136.092 130.589 136.404 130.584C137.295 130.567 138.232 130.573 139.217 130.592C139.674 130.603 140.14 130.613 140.618 130.632C140.65 130.632 140.68 130.635 140.709 130.635C141.125 130.649 141.544 130.665 141.974 130.686C142.275 130.7 142.579 130.714 142.882 130.73C143.168 130.746 143.457 130.762 143.749 130.781C143.976 130.792 144.203 130.808 144.433 130.822C144.628 130.835 144.822 130.849 145.017 130.86L145.282 130.876C145.427 130.887 145.571 130.895 145.719 130.909C146.043 130.933 146.367 130.957 146.698 130.982C147.025 131.009 147.358 131.036 147.691 131.063C148.025 131.09 148.361 131.12 148.697 131.15C148.732 131.152 148.765 131.155 148.797 131.158C149.104 131.188 149.41 131.215 149.72 131.244C149.791 131.25 149.864 131.255 149.935 131.263C150.23 131.291 150.531 131.323 150.829 131.352C150.921 131.361 151.012 131.369 151.103 131.379C151.337 131.402 151.567 131.422 151.802 131.448C152.111 131.48 152.427 131.51 152.733 131.548C152.972 131.572 153.211 131.597 153.45 131.624C153.824 131.664 154.205 131.708 154.585 131.754C154.73 131.77 154.874 131.786 155.019 131.805C156.104 131.93 157.201 132.068 158.315 132.211C160.005 132.431 161.721 132.669 163.449 132.926C165.179 133.184 166.92 133.456 168.67 133.742C169.113 133.815 169.555 133.888 170 133.964C170.201 133.999 170.401 134.034 170.602 134.069C170.944 134.126 171.286 134.186 171.628 134.246C171.97 134.305 172.312 134.365 172.654 134.427C173.061 134.5 173.471 134.573 173.878 134.646C176.558 135.134 179.223 135.654 181.824 136.198C182.252 136.288 182.679 136.38 183.104 136.469C183.953 136.651 184.794 136.835 185.628 137.022C185.858 137.071 186.085 137.122 186.312 137.173C186.878 137.303 187.444 137.433 188.001 137.566L188.099 137.591C188.509 137.683 188.91 137.777 189.311 137.875C190.257 138.103 191.188 138.333 192.103 138.566C192.71 138.72 193.311 138.876 193.904 139.034C194.792 139.27 195.662 139.508 196.508 139.749C196.717 139.809 196.927 139.868 197.133 139.925C197.752 140.101 198.363 140.28 198.955 140.459C199.427 140.6 199.887 140.743 200.341 140.887C200.795 141.03 201.24 141.174 201.677 141.318C201.957 141.41 202.234 141.507 202.511 141.599C202.909 141.735 203.302 141.87 203.685 142.006C203.803 142.046 203.918 142.09 204.033 142.13C204.107 142.16 204.177 142.184 204.248 142.211C204.387 142.263 204.528 142.312 204.664 142.363C204.802 142.412 204.938 142.463 205.074 142.517C205.206 142.566 205.342 142.618 205.472 142.669C205.604 142.718 205.734 142.769 205.864 142.824C205.973 142.864 206.079 142.908 206.182 142.951C206.392 143.035 206.601 143.119 206.804 143.205C206.905 143.249 207.005 143.289 207.105 143.333L207.335 143.43C207.368 143.447 207.4 143.46 207.432 143.474C207.506 143.506 207.583 143.541 207.657 143.574C207.828 143.647 207.996 143.726 208.161 143.799C208.382 143.902 208.597 144.004 208.804 144.105C209.013 144.208 209.216 144.311 209.411 144.411C209.443 144.427 209.473 144.443 209.505 144.46C209.55 144.481 209.594 144.506 209.638 144.527C209.788 144.606 209.933 144.687 210.077 144.766C210.36 144.925 210.629 145.082 210.879 145.24C210.935 145.275 210.988 145.31 211.045 145.342C211.23 145.464 211.407 145.584 211.572 145.705C211.572 145.708 211.572 145.708 211.575 145.708C211.631 145.746 211.684 145.787 211.737 145.825C211.782 145.863 211.829 145.895 211.873 145.933C212.026 146.055 212.168 146.171 212.298 146.29C212.341 146.327 212.382 146.366 212.422 146.407C212.439 146.42 212.454 146.435 212.469 146.45C212.528 146.504 212.581 146.559 212.631 146.613C212.639 146.62 212.646 146.628 212.651 146.637C212.722 146.713 212.787 146.789 212.849 146.865C212.879 146.903 212.911 146.941 212.938 146.978C212.973 147.025 213.008 147.073 213.038 147.119C213.064 147.157 213.088 147.198 213.111 147.236C213.174 147.333 213.227 147.436 213.271 147.542C213.304 147.614 213.33 147.688 213.35 147.764C213.373 147.836 213.389 147.909 213.4 147.983V147.983Z" fill="#2F2E41"/>
<path opacity="0.2" d="M213.4 147.983C213.397 148.457 213.392 149.121 213.368 149.942C213.365 150.055 213.359 150.172 213.356 150.291C213.327 151.442 213.282 152.864 213.22 154.47C213.218 154.568 213.215 154.663 213.209 154.76C213.126 156.721 212.996 159.005 212.772 162.62C212.357 169.3 211.631 163.539 210.903 165.882C208.88 164.739 206.663 163.541 204.292 162.312C203.865 162.09 203.433 161.867 202.998 161.643C198.256 159.213 192.961 156.667 187.432 154.145C187.214 154.045 186.993 153.945 186.775 153.847C174.111 148.097 160.288 142.504 149.089 138.772C146.928 138.051 144.864 137.401 142.923 136.829C138.837 135.63 135.304 134.79 132.586 134.427C129.755 134.048 127.8 134.183 127.01 134.966C126.98 134.413 126.95 133.884 126.919 133.379C126.907 133.211 126.895 133.046 126.883 132.883C126.901 132.838 126.925 132.796 126.948 132.753C126.951 132.747 126.954 132.74 126.957 132.734C126.963 132.72 126.969 132.706 126.978 132.693C126.986 132.677 126.996 132.66 127.007 132.645C127.017 132.626 127.028 132.607 127.042 132.591C127.069 132.553 127.098 132.512 127.131 132.474C127.155 132.446 127.18 132.419 127.208 132.393C127.217 132.38 127.227 132.368 127.24 132.358C127.252 132.347 127.264 132.333 127.278 132.32C127.285 132.311 127.293 132.304 127.302 132.298C127.325 132.273 127.351 132.251 127.379 132.23C127.484 132.141 127.596 132.06 127.715 131.987C127.756 131.962 127.8 131.938 127.841 131.911C128.139 131.747 128.452 131.61 128.776 131.499C128.888 131.461 129 131.426 129.121 131.388C129.165 131.377 129.207 131.364 129.251 131.35C129.316 131.331 129.381 131.312 129.448 131.299C129.785 131.206 130.147 131.128 130.539 131.055C130.657 131.033 130.781 131.011 130.905 130.993C131.005 130.976 131.108 130.96 131.212 130.944C132.087 130.816 133.081 130.722 134.178 130.659C134.281 130.654 134.384 130.649 134.488 130.643C134.608 130.638 134.729 130.632 134.853 130.627C134.956 130.621 135.063 130.619 135.169 130.616C135.272 130.611 135.378 130.608 135.487 130.605C135.785 130.597 136.092 130.589 136.404 130.584C137.295 130.57 138.232 130.575 139.217 130.594C139.674 130.602 140.14 130.616 140.618 130.635C140.647 130.635 140.68 130.638 140.709 130.638C141.125 130.649 141.546 130.667 141.974 130.686C142.275 130.7 142.578 130.714 142.882 130.73C143.168 130.746 143.457 130.762 143.749 130.781C143.976 130.792 144.203 130.808 144.433 130.822C144.628 130.835 144.822 130.849 145.017 130.86C145.25 130.876 145.483 130.892 145.719 130.909C146.043 130.933 146.367 130.957 146.698 130.982C147.025 131.009 147.358 131.036 147.691 131.063C148.024 131.09 148.361 131.12 148.697 131.15C148.732 131.152 148.765 131.155 148.797 131.158C149.104 131.188 149.41 131.215 149.72 131.244C151.436 131.404 153.202 131.591 155.018 131.805C156.104 131.932 157.202 132.069 158.315 132.214C160.005 132.433 161.721 132.672 163.448 132.926C165.179 133.184 166.92 133.455 168.67 133.742C169.113 133.815 169.555 133.888 170 133.964C170.543 134.056 171.085 134.15 171.628 134.245C171.97 134.305 172.312 134.365 172.654 134.427C173.061 134.5 173.471 134.573 173.878 134.646C176.558 135.134 179.223 135.654 181.824 136.198C182.252 136.288 182.679 136.38 183.104 136.469C183.953 136.651 184.794 136.835 185.628 137.022C185.858 137.073 186.085 137.125 186.312 137.176C186.881 137.306 187.444 137.436 188.001 137.566V137.569C188.034 137.574 188.066 137.582 188.099 137.591C188.505 137.685 188.909 137.78 189.31 137.878C190.257 138.105 191.188 138.335 192.103 138.566C192.71 138.723 193.312 138.877 193.904 139.034C194.792 139.273 195.662 139.511 196.508 139.749C196.717 139.809 196.927 139.868 197.133 139.925C197.752 140.104 198.36 140.282 198.955 140.459C199.427 140.6 199.887 140.743 200.341 140.887C200.795 141.03 201.24 141.174 201.677 141.318C201.96 141.41 202.237 141.504 202.511 141.597C202.912 141.732 203.301 141.867 203.685 142.006C203.803 142.046 203.918 142.09 204.033 142.13C204.248 142.206 204.457 142.285 204.664 142.363C204.802 142.412 204.938 142.463 205.074 142.517C205.206 142.566 205.342 142.618 205.472 142.669C205.604 142.718 205.734 142.769 205.864 142.824C205.973 142.864 206.079 142.907 206.182 142.951C206.392 143.035 206.601 143.119 206.804 143.205C206.905 143.249 207.005 143.289 207.105 143.333L207.335 143.43C207.368 143.447 207.4 143.46 207.432 143.474C207.683 143.582 207.925 143.69 208.161 143.799C208.382 143.902 208.597 144.004 208.804 144.105C209.048 144.224 209.281 144.34 209.505 144.46C209.549 144.481 209.594 144.506 209.638 144.527C209.788 144.606 209.933 144.687 210.077 144.766C210.36 144.925 210.629 145.082 210.879 145.24C211.127 145.397 211.357 145.551 211.572 145.705C211.572 145.708 211.572 145.708 211.575 145.708C211.678 145.784 211.779 145.86 211.873 145.933C212.026 146.055 212.168 146.171 212.298 146.29C212.341 146.327 212.382 146.366 212.421 146.407C212.439 146.42 212.454 146.435 212.469 146.45C212.531 146.513 212.592 146.575 212.651 146.637C212.722 146.713 212.787 146.789 212.849 146.865C212.878 146.903 212.911 146.941 212.937 146.978C212.973 147.024 213.008 147.073 213.038 147.119C213.064 147.157 213.088 147.198 213.111 147.236C213.174 147.333 213.227 147.436 213.271 147.542C213.303 147.614 213.329 147.688 213.35 147.764C213.373 147.836 213.389 147.909 213.4 147.983V147.983Z" fill="black"/>
</g>
</g>
<g filter="url(#filter1_d_0_1)">
<rect width="2626" height="733" transform="translate(2670)" fill="url(#paint1_linear_0_1)"/>
</g>
<defs>
<filter id="filter0_d_0_1" x="0" y="0" width="908" height="208" filterUnits="userSpaceOnUse" color-interpolation-filters="sRGB">
<feFlood flood-opacity="0" result="BackgroundImageFix"/>
<feColorMatrix in="SourceAlpha" type="matrix" values="0 0 0 0 0 0 0 0 0 0 0 0 0 0 0 0 0 0 127 0" result="hardAlpha"/>
<feOffset dy="4"/>
<feGaussianBlur stdDeviation="2"/>
<feComposite in2="hardAlpha" operator="out"/>
<feColorMatrix type="matrix" values="0 0 0 0 0 0 0 0 0 0 0 0 0 0 0 0 0 0 0.25 0"/>
<feBlend mode="normal" in2="BackgroundImageFix" result="effect1_dropShadow_0_1"/>
<feBlend mode="normal" in="SourceGraphic" in2="effect1_dropShadow_0_1" result="shape"/>
</filter>
<filter id="filter1_d_0_1" x="2666" y="0" width="2634" height="741" filterUnits="userSpaceOnUse" color-interpolation-filters="sRGB">
<feFlood flood-opacity="0" result="BackgroundImageFix"/>
<feColorMatrix in="SourceAlpha" type="matrix" values="0 0 0 0 0 0 0 0 0 0 0 0 0 0 0 0 0 0 127 0" result="hardAlpha"/>
<feOffset dy="4"/>
<feGaussianBlur stdDeviation="2"/>
<feComposite in2="hardAlpha" operator="out"/>
<feColorMatrix type="matrix" values="0 0 0 0 0 0 0 0 0 0 0 0 0 0 0 0 0 0 0.25 0"/>
<feBlend mode="normal" in2="BackgroundImageFix" result="effect1_dropShadow_0_1"/>
<feBlend mode="normal" in="SourceGraphic" in2="effect1_dropShadow_0_1" result="shape"/>
</filter>
<linearGradient id="paint0_linear_0_1" x1="399.37" y1="5.96792e-06" x2="611.689" y2="250.938" gradientUnits="userSpaceOnUse">
<stop stop-color="#0085FF"/>
<stop offset="0.0001"/>
<stop offset="0.493143" stop-color="#1262AB"/>
<stop offset="0.916667" stop-color="#2F54B3"/>
</linearGradient>
<linearGradient id="paint1_linear_0_1" x1="2626" y1="423" x2="24.0001" y2="157" gradientUnits="userSpaceOnUse">
<stop stop-color="#3BCDFB" stop-opacity="0.5"/>
<stop offset="0.579212" stop-color="#225666" stop-opacity="0.5"/>
</linearGradient>
<clipPath id="clip0_0_1">
<rect width="232" height="155" fill="white" transform="translate(53 23)"/>
</clipPath>
</defs>
</svg>
